<?xml version="1.0" encoding="UTF-8" standalone="no"?>
<!-- Created with Inkscape (http://www.inkscape.org/) -->

<svg
   xmlns:dc="http://purl.org/dc/elements/1.1/"
   xmlns:cc="http://creativecommons.org/ns#"
   xmlns:rdf="http://www.w3.org/1999/02/22-rdf-syntax-ns#"
   xmlns:svg="http://www.w3.org/2000/svg"
   xmlns="http://www.w3.org/2000/svg"
   xmlns:sodipodi="http://sodipodi.sourceforge.net/DTD/sodipodi-0.dtd"
   xmlns:inkscape="http://www.inkscape.org/namespaces/inkscape"
   width="744.09448"
   height="744.09448"
   id="svg2"
   version="1.1"
   inkscape:version="0.48.5 r10040"
   sodipodi:docname="vlk_01.svg">
  <defs
     id="defs4" />
  <sodipodi:namedview
     id="base"
     pagecolor="#ffffff"
     bordercolor="#666666"
     borderopacity="1.0"
     inkscape:pageopacity="0.0"
     inkscape:pageshadow="2"
     inkscape:zoom="0.71648025"
     inkscape:cx="375.14473"
     inkscape:cy="743.96951"
     inkscape:document-units="px"
     inkscape:current-layer="layer1"
     showgrid="false"
     inkscape:window-width="1366"
     inkscape:window-height="705"
     inkscape:window-x="-8"
     inkscape:window-y="-8"
     inkscape:window-maximized="1"
     units="mm" />
  <metadata
     id="metadata7">
    <rdf:RDF>
      <cc:Work
         rdf:about="">
        <dc:format>image/svg+xml</dc:format>
        <dc:type
           rdf:resource="http://purl.org/dc/dcmitype/StillImage" />
        <dc:title></dc:title>
      </cc:Work>
    </rdf:RDF>
  </metadata>
  <g
     inkscape:label="Layer 1"
     inkscape:groupmode="layer"
     id="layer1"
     transform="translate(0,-308.26772)">
    <g
       id="layer1-9"
       inkscape:label="Layer 1"
       transform="matrix(1.115166,0,0,1.115166,-49.548633,298.24813)">
      <path
         sodipodi:nodetypes="csccsccccccssssssscssssccscscscsssccccccccscsccccccscccscscscssccsscccsssscccccccccccccccscsscscssssscccccsscccccccccccccsccccccccccccccccccccccccccccccscssccsssccsccscccccsccccscscsccccsccccc"
         inkscape:connector-curvature="0"
         d="m 160.26216,237.36436 c -9.7728,-9.09849 -17.71187,-11.71629 -34.56489,-13.82901 -12.4667,-1.56285 -33.27496,-12.36476 -37.408809,-24.03084 -3.309863,7.96369 0.320919,20.58921 9.984427,32.25749 -10.47194,-7.12268 -20.312247,-14.78258 -22.241174,-28.51419 -1.217127,-8.66446 -1.459618,-18.42374 -4.907917,-28.97874 2.148726,1.03823 3.194809,1.15844 5.696961,1.25588 -2.236656,-3.63098 -3.307944,-7.10479 -3.10532,-11.40165 1.520033,5.40734 2.929191,7.58377 7.212868,11.32086 6.089334,-0.23994 11.858417,-4.92677 13.598672,-9.23645 13.815272,-2.72276 20.161422,-15.85085 11.054642,-25.06599 29.41507,2.15961 66.82015,4.45858 81.36855,7.69723 17.01041,3.78673 26.14857,3.38247 35.48788,-4.89806 24.11799,-21.38378 70.76983,-19.19689 116.54609,-5.60348 12.84627,3.81474 20.55158,2.92595 32.83533,-0.99934 21.43863,-6.85074 35.98138,-9.99842 62.46035,-14.00918 15.39309,-2.33159 27.67509,-9.55424 45.05787,-15.53148 4.53083,-1.55797 8.75953,-1.95105 8.66006,5.11005 -0.55299,39.25805 -19.75223,77.31875 -46.33408,106.29563 33.42918,-14.15251 55.78696,-73.33391 53.44526,-114.29042 -0.39458,-6.901193 -5.98354,-7.408013 -10.03145,-6.132163 -17.23631,5.432643 -39.76419,16.499623 -47.66203,17.742823 -23.36935,3.67861 -46.45555,8.09333 -68.65532,15.6403 -15.29719,5.20039 -25.37548,1.42813 -39.20656,-2.25854 -45.22294,-11.71823 -86.0175,-13.92077 -112.50726,10.21603 -11.21451,7.1303 -19.70126,3.63862 -29.49239,2.37328 -32.86058,-4.24667 -53.84171,-6.68091 -88.290814,-6.5649 -1.651037,-0.91666 -6.31396,-2.94697 -12.64011,-1.623 -27.023349,5.65558 -31.772236,17.64012 -20.842476,36.40072 1.805245,12.34553 3.663895,23.64344 5.415739,35.99665 1.515299,10.68521 10.465315,24.74457 23.899869,31.75688 -5.240575,4.05213 -4.763713,8.63534 -3.035269,14.13256 3.281783,10.43752 6.699866,17.87361 12.834711,27.46974 2.75004,4.3016 10.17605,7.1987 15.22486,7.74336 84.47794,9.11318 81.62024,48.72005 80.22696,83.7131 5.83669,-10.8386 8.76011,-23.48774 8.12112,-38.35083 11.47828,40.84735 25.56869,71.8563 45.20725,81.96857 -9.80358,-16.16055 -13.15501,-26.53844 -12.07441,-32.94414 14.98438,22.01949 26.52186,42.69922 28.714,59.74656 2.17538,-16.46128 3.72419,-33.23017 -1.61745,-53.38203 23.92817,20.97738 32.00005,60.70093 37.34695,103.64611 3.73311,-17.25664 4.52025,-35.35329 2.32102,-54.30143 4.16267,8.96113 6.74386,19.76822 8.99739,41.5072 2.90651,28.03803 15.34696,45.22193 30.39126,57.04773 -18.58134,-23.52109 -13.31274,-63.80436 19.90901,-25.41314 9.48855,10.96502 16.66597,31.82915 27.44393,50.35247 -5.61832,-20.80155 -11.87919,-41.76328 -13.26659,-64.737 22.80922,40.99726 50.64882,59.13677 101.63732,73.64065 -35.11027,-20.86506 -42.13207,-32.13224 -45.61156,-42.189 32.88842,30.77715 71.75274,29.30208 110.28299,29.6299 -21.2197,-9.40611 -43.43477,-17.51831 -59.70196,-33.36222 29.3395,-3.78263 58.80963,2.56191 87.23469,25.78126 28.11014,22.96212 55.65266,39.53049 83.96093,36.46678 -25.72067,-8.66395 -45.70717,-22.88541 -58.88613,-43.70469 24.90086,15.58806 52.5224,22.15999 84.00985,15.92059 -32.96267,-8.60084 -55.35863,-33.83586 -73.00985,-74.55534 -31.17137,-71.90899 -68.59169,-75.24044 -102.55671,-77.57913 32.48154,17.01576 44.59229,55.72742 28.46693,68.57189 -15.34742,12.22481 -51.34397,1.04302 -92.17477,-47.93154 32.32084,46.12667 16.28688,60.75472 -7.75814,22.11514 -10.45892,-16.80714 -18.56479,-35.31462 -24.25715,-55.48023 -1.8402,11.80726 0.91294,24.48646 7.17378,39.62563 9.8086,23.71785 -2.8332,33.40327 -25.24868,18.35343 -13.16055,-8.83605 -29.63266,-40.91887 -34.4837,-63.7064 -0.43979,25.79038 5.45124,51.02578 17.67309,75.7062 -13.30321,-18.1939 -21.72994,-37.92434 -28.57525,-58.16384 -8.8739,-26.23741 -36.1659,-46.87436 -44.3567,-38.79028 -4.16304,4.1088 -3.40745,12.85752 24.57595,35.10175 -44.5886,-18.22138 -74.75756,-51.17335 -97.54016,-91.67096 -0.43654,17.03612 5.22668,34.45165 17.27679,52.26446 -7.79835,-4.78765 -14.30944,-13.90592 -31.00892,-34.98439 -27.25313,-34.39955 -54.86216,-40.82824 -95.97451,-45.42943 -7.00027,-0.78345 -11.28604,-1.48449 -15.54425,-8.39474 -2.9445,-4.77835 -7.547304,-13.70512 -9.471432,-21.40238 -1.853307,-7.41394 0.0375,-10.11196 6.545902,-11.13479 26.29784,-1.50973 36.65806,-8.81867 55.74293,-3.99352 z m 85.09059,-94.08838 c 1.58696,2.1492 2.28142,4.1442 2.09508,7.06993 2.84345,-0.84978 5.04761,-4.42003 5.28893,-7.60794 -2.52929,-0.28284 -5.18225,-0.0206 -7.38401,0.53801 z m -12.04685,4.93083 c -0.64107,3.06735 0.32209,5.75072 2.28243,7.41211 10.78383,0.75781 16.46085,-1.83576 23.25008,-5.35487 1.42831,-2.14326 1.97212,-4.88343 1.16823,-7.23257 l -4.41445,-0.053 c 0.41118,10.0516 -14.30036,15.51386 -20.97496,4.20501 z m -17.94071,7.3401 c 13.01222,-0.30039 20.77098,3.91404 32.48958,1.30589 10.16025,-2.26132 21.39956,-11.84524 34.09488,-12.1903 -11.63831,-4.66382 -24.59198,-5.95257 -35.63479,-4.86277 -12.46324,1.22998 -15.94939,10.315 -30.70941,12.9341 -2.56393,0.45496 -1.33098,2.80241 -0.24026,2.81308 z m -121.169477,3.24197 c 0.630161,0.49558 1.058357,2.69172 1.230175,4.27582 1.765215,-1.66041 2.077551,-6.4504 0.760191,-8.52049 -1.01572,-1.5961 -2.926962,-3.38436 -5.917345,-2.47872 -2.908553,0.88088 -4.201695,4.01906 -3.537045,6.22298 0.594218,1.97038 1.97966,3.49049 4.410726,2.99198 2.293604,-0.47032 1.76899,-3.50159 3.053298,-2.49157 z m 17.237777,78.2739 c 3.35315,-0.45792 6.87259,-0.73428 10.62533,-1.63374 -2.19047,-0.70897 -4.40532,-1.66182 -6.80935,-4.50643 -2.36777,1.36572 -3.45395,3.58714 -3.81598,6.14017 z m 409.03093,215.46683 c -50.60353,-50.46956 -18.60984,-110.98165 52.05989,-47.79709 18.9218,16.91764 30.94876,36.4074 43.49265,58.10871 8.12152,14.05049 16.61066,26.49748 29.43734,32.47105 -53.10402,-76.33464 32.20383,-47.27881 34.41284,39.37989 12.48833,-44.24806 6.50707,-91.89004 -17.54344,-142.85233 12.6326,14.64347 20.74503,34.87189 27.14388,57.21751 6.06711,-51.22405 -3.41596,-97.44773 -48.04993,-132.36817 21.63293,11.98249 38.55708,31.54174 54.37704,52.8777 -17.28561,-70.17141 -71.23407,-149.06655 -189.42452,-112.81584 3.94243,10.57068 5.14811,19.54099 6.30645,28.45538 -7.43431,-18.45207 -20.47283,-28.76392 -35.67729,-34.71328 34.93059,39.19847 27.19281,63.26974 25.60592,89.52168 -2.93655,-17.93184 -3.56567,-34.71726 -29.02606,-63.83968 12.41695,30.5582 9.55189,58.40567 2.47502,85.50601 -2.59537,-12.37498 -7.15556,-23.11843 -12.74859,-33.00426 1.01391,13.18057 0.79259,28.24081 -7.82912,48.56847 -6.35138,14.97481 -4.97092,28.37757 1.97084,41.57302 0.0974,-10.21245 -0.0577,-20.51955 5.76902,-28.58418 9.62087,35.98986 34.50842,47.41457 57.24806,62.29541 z M 450.25875,223.34657 c 17.40169,-6.00653 40.3335,-0.34336 52.36008,20.15582 85.91069,-20.61187 113.74709,-8.6752 159.37741,34.50036 -16.39579,-38.85964 -51.85488,-85.71255 -121.38681,-76.24475 20.1396,-10.4866 47.09731,-7.69302 76.91707,0.67518 -31.69363,-21.12305 -65.71635,-39.36544 -110.96109,-26.26352 8.96095,-12.58832 24.48315,-20.46643 44.57705,-25.06254 -23.40988,-0.60009 -42.50123,2.07197 -61.44198,14.95817 -9.06026,27.53511 -23.28307,43.43209 -39.44173,57.28128 z m -49.45192,-3.21202 c 24.91823,-4.78862 33.51622,3.26544 43.35176,11.58956 -4.87332,-10.42654 -11.65835,-19.4468 -23.82479,-24.50844 8.89394,-4.20102 18.07066,-4.00292 27.27009,-3.45104 -9.74069,-6.8329 -21.53971,-8.83834 -36.27726,-6.87326 6.48895,-4.24888 13.91259,-5.8554 21.59549,-6.72892 -10.90946,-2.35475 -22.47228,-1.97231 -34.62267,0.87171 11.88711,-9.04875 27.43387,-14.5151 50.42695,-12.69232 -8.10307,-4.52757 -17.8564,-5.59839 -28.144,-5.5501 12.39501,-6.94498 27.05345,-7.26035 41.99862,-6.7359 -9.16357,-5.56497 -18.7517,-6.54884 -28.37211,-7.18447 8.30304,-11.3413 20.45531,-20.29041 33.49946,-28.68523 -16.6525,2.47915 -33.09448,6.61698 -48.30192,20.48091 5.32763,-8.78474 9.48061,-12.7944 18.18489,-18.05287 -21.2679,3.09595 -45.85186,16.97884 -52.51876,44.47818 -4.89125,-11.02847 -4.52339,-19.34328 -0.43477,-30.12209 -23.57413,22.97601 -7.27226,60.69922 16.16902,73.16428 z M 115.4527,212.99559 c -23.362902,-23.29134 22.62204,-70.68786 87.37867,-33.05567 47.07026,27.35405 81.74541,36.29355 107.62767,30.0498 -33.93788,-0.0851 -42.73228,-44.10662 -5.48403,-51.29807 22.46124,-4.33655 43.71939,14.13527 56.04221,34.3027 10.69703,17.50668 21.64385,29.37142 32.86512,30.95018 -22.20277,-13.30228 -42.79738,-50.72177 -16.15416,-78.93214 -27.86252,9.28031 -38.85733,7.11088 -57.04648,4.49516 -25.8726,-3.72063 -45.12543,7.68496 -58.70428,18.24791 -18.44548,14.34869 -40.4937,6.82205 -73.97319,-5.45047 -22.66568,-8.30853 -48.09234,-10.39538 -74.03538,-11.278 -1.25593,10.91794 -7.46179,17.87438 -17.244592,19.27982 -0.92796,3.82545 -3.382262,5.45934 -5.729305,7.26063 -11.794275,9.05183 5.737495,30.525 24.457747,35.42815 z m 88.83874,67.91768 c 31.84553,-3.56127 84.52574,4.46483 119.63076,19.03804 22.61456,9.38803 31.04617,43.05284 -9.42114,42.78353 29.67745,10.85998 47.46329,2.89007 57.14673,-17.90964 28.57918,20.02858 29.09316,45.14612 29.91,70.20876 4.71279,-25.62505 10.17243,-51.21351 -5.55198,-77.84004 20.58409,7.56261 34.5084,31.46801 39.06375,78.3643 3.29102,-26.24795 6.42912,-56.54637 -4.96577,-85.16792 -13.29428,-33.39236 28.34046,-44.54063 32.7498,13.22236 7.39441,-30.45577 -1.54505,-56.25869 -25.31915,-77.21262 6.89226,1.42828 15.7085,9.16774 25.76486,20.97513 -28.23942,-46.59444 -53.96482,-50.33697 -78.47894,-33.43319 37.13117,-1.70199 28.04305,31.66654 -6.22618,11.47028 -20.5652,-12.11992 -38.73086,-13.79602 -61.0787,-11.34014 46.17265,1.5202 79.11682,47.63118 3.20307,13.72101 -20.96053,-9.36295 -44.406,-12.56349 -57.86819,-10.69838 39.56659,8.88434 95.85485,47.43229 24.4298,39.09446 -28.28283,-3.30161 -56.58311,-1.35401 -82.98872,4.72406 z m -77.86911,-63.69773 c 16.97937,2.63137 33.72784,7.18677 49.04279,23.68756 -6.66211,-16.38146 35.67244,-11.02283 70.70196,-8.12803 -11.94372,-5.42502 -28.32795,-4.61274 -30.44702,-17.79023 -1.353,-8.41365 -6.42609,-13.72444 -9.5938,-19.16792 7.87503,40.9916 -52.01581,17.13898 -79.70393,21.39862 z m -23.32738,33.16306 c 9.09695,39.57462 32.85614,25.8772 87.51967,30.50105 -32.89231,-8.35869 -71.8086,-0.72354 -87.51967,-30.50105 z"
         style="fill:#000000;fill-rule:evenodd;stroke:none"
         id="path3814" />
    </g>
  </g>
</svg>
